<svg enable-background="new 0 0 24 24" height="512" viewBox="0 0 24 24" width="512" xmlns="http://www.w3.org/2000/svg"><path d="m12 .522c-6.617 0-12 5.319-12 11.855 0 4.877 3.094 9.318 7.698 11.051 1.354.532 1.13-1.858 3.232-7.57.107-.337-.04-.701-.352-.87-.973-.53-1.578-1.531-1.578-2.611 0-1.635 1.345-2.964 3-2.964 1.654 0 3 1.329 3 2.964 0 1.08-.604 2.081-1.578 2.613-.312.169-.46.533-.352.87 2.148 6.529 2.13 7.99 3.233 7.569 4.604-1.733 7.697-6.175 7.697-11.052 0-6.537-5.383-11.855-12-11.855z" fill="#4caf50"/></svg>